<?xml version="1.0" encoding="UTF-8"?>
<svg version="1.1" xmlns="http://www.w3.org/2000/svg" width="500" height="500">
<path d="M0 0 C4.13138962 1.37712987 4.93983806 4.08786591 6.80859375 7.76171875 C7.171203 8.45508835 7.53381226 9.14845795 7.90740967 9.86283875 C9.09274512 12.1333429 10.26487524 14.41040943 11.4375 16.6875 C12.66634625 19.04700478 13.89866776 21.40467372 15.13105774 23.7623291 C15.94996774 25.32969145 16.76774762 26.89764479 17.58439636 28.46618652 C20.71439296 34.47540908 23.91995894 40.43935681 27.1875 46.375 C31.63261396 54.47390672 36.01785977 62.60343823 40.375 70.75 C41.00576461 71.92896224 41.63654258 73.10791733 42.26733398 74.28686523 C43.21681514 76.06152077 44.16628357 77.83618309 45.11567688 79.61088562 C48.65360075 86.22344255 52.19931344 92.83178818 55.75 99.4375 C56.33442871 100.52708008 56.91885742 101.61666016 57.52099609 102.73925781 C58.06578613 103.75213867 58.61057617 104.76501953 59.171875 105.80859375 C59.8848877 107.13588501 59.8848877 107.13588501 60.61230469 108.48999023 C62.01712352 111.03097236 63.4912897 113.51953552 65 116 C65.08975098 115.33693848 65.17950195 114.67387695 65.27197266 113.99072266 C70.3038314 77.71496887 83.14370116 46.77609083 113 24 C113.77859375 23.39414063 114.5571875 22.78828125 115.359375 22.1640625 C125.31171261 14.78330206 136.55846473 9.59639065 148.25 5.625 C149.29317383 5.26716431 149.29317383 5.26716431 150.35742188 4.90209961 C161.4436711 1.32851484 172.53597472 0.60999849 184.125 0.625 C184.80464813 0.62521149 185.48429626 0.62542297 186.18453979 0.62564087 C197.28089915 0.66001106 207.40830711 1.66962234 218 5 C219.20914062 5.36222656 220.41828125 5.72445312 221.6640625 6.09765625 C249.88548885 15.3275019 272.14308099 35.43489341 286.2578125 61.328125 C287 63 287 63 287 65 C282.00610377 65.76981009 276.90142823 66.53153652 272 65 C267.98522055 61.1876464 265.65602826 56.81936044 263 52 C249.3505334 32.69012468 224.40616694 21.50433253 202 17 C174.19224649 12.77992886 145.98800498 18.75597068 122.96875 35.16015625 C120.21624818 37.35210644 117.59469698 39.62384565 115 42 C114.14792969 42.77085937 113.29585937 43.54171875 112.41796875 44.3359375 C93.07649659 62.69696637 82.40691836 88.54945637 81.66577148 115.02124023 C81.2541038 145.09763218 91.4806492 171.75785027 112.25 193.6875 C131.71995347 212.30350815 156.93406195 221.4529396 183.75 221.3125 C184.88743652 221.30686035 186.02487305 221.3012207 187.19677734 221.29541016 C214.01722881 220.91046407 237.18866101 211.02881112 256 192 C256.78890625 191.22140625 257.5778125 190.4428125 258.390625 189.640625 C262.96111909 184.87836193 266.6638524 179.74351114 270.1875 174.1875 C270.57953613 173.57237549 270.97157227 172.95725098 271.37548828 172.32348633 C275.21160468 166.06232185 277.86068496 159.80184925 281 153 C222.92 153 164.84 153 105 153 C102 144 102 144 102 140 C167.34 140 232.68 140 300 140 C296.45282953 168.37736377 281.3259857 194.58379709 258.75 212.25 C239.30061978 226.84216809 215.43225907 236.16112415 191 237 C189.92363281 237.0515625 188.84726562 237.103125 187.73828125 237.15625 C156.1184396 237.9766567 126.36571302 227.57154931 103.29394531 205.81347656 C90.56266908 193.36727726 81.45132029 178.84240583 73.18164062 163.17724609 C71.50593235 160.08964973 69.74294177 157.05014811 68 154 C24.11 154 -19.78 154 -65 154 C-68.96 161.59 -72.92 169.18 -77 177 C-83.22433575 188.44474638 -83.22433575 188.44474638 -85.76953125 193.07421875 C-88.19178677 197.49915646 -90.57815199 201.94205567 -92.94921875 206.39453125 C-93.28572952 207.02582443 -93.6222403 207.65711761 -93.96894836 208.30754089 C-95.62485204 211.41482654 -97.27738175 214.52383738 -98.92504883 217.63549805 C-99.52728271 218.76640869 -100.1295166 219.89731934 -100.75 221.0625 C-101.28109375 222.06410156 -101.8121875 223.06570313 -102.359375 224.09765625 C-104.11649619 227.20608732 -105.82751579 230.16141903 -108 233 C-111.04745819 233.45895455 -113.2497965 233.5817278 -116.25 233.375 C-116.99507812 233.34792969 -117.74015625 233.32085937 -118.5078125 233.29296875 C-120.33978993 233.22250808 -122.17027151 233.11488993 -124 233 C-122.64946864 229.48648979 -121.11778924 226.15597693 -119.3828125 222.81640625 C-118.86468994 221.81810791 -118.34656738 220.81980957 -117.81274414 219.79125977 C-117.25578857 218.72576904 -116.69883301 217.66027832 -116.125 216.5625 C-115.54419678 215.44866943 -114.96339355 214.33483887 -114.36499023 213.18725586 C-109.72329311 204.31655493 -104.96022903 195.51713572 -100.140625 186.7421875 C-97.79531176 182.46766498 -95.47693328 178.17914383 -93.171875 173.8828125 C-92.84992661 173.28301071 -92.52797821 172.68320892 -92.1962738 172.06523132 C-90.61364626 169.11575853 -89.03326718 166.16511768 -87.45532227 163.21313477 C-86.88869873 162.15666748 -86.3220752 161.1002002 -85.73828125 160.01171875 C-85.23337158 159.06772217 -84.72846191 158.12372559 -84.20825195 157.15112305 C-83 155 -83 155 -82 154 C-95.86 153.67 -109.72 153.34 -124 153 C-122 147 -122 147 -118 140 C-103.48 140 -88.96 140 -74 140 C-73.34 138.35 -72.68 136.7 -72 135 C-71.14919368 133.26140312 -70.27516416 131.5340497 -69.3828125 129.81640625 C-68.86477051 128.81826904 -68.34672852 127.82013184 -67.81298828 126.79174805 C-67.25595215 125.72609619 -66.69891602 124.66044434 -66.125 123.5625 C-65.54347168 122.44721924 -64.96194336 121.33193848 -64.36279297 120.18286133 C-60.21062188 112.24733825 -55.96717549 104.36614433 -51.65820312 96.51489258 C-47.60004943 89.11826101 -43.60315056 81.68992063 -39.625 74.25 C-38.34773135 71.86193899 -37.07037429 69.47392528 -35.79296875 67.0859375 C-35.47663986 66.49453476 -35.16031097 65.90313202 -34.83439636 65.29380798 C-31.54628616 59.14835563 -28.24315929 53.01102542 -24.9375 46.875 C-24.3712793 45.8236084 -23.80505859 44.7722168 -23.22167969 43.68896484 C-20.52477744 38.68229384 -17.82594283 33.67667565 -15.12336731 28.67306519 C-14.16070941 26.89049088 -13.19855938 25.10764341 -12.23657227 23.32470703 C-11.03105901 21.09075262 -9.82457831 18.8573199 -8.61694336 16.62451172 C-5.6506192 11.1256823 -2.7564888 5.60710162 0 0 Z M1 29 C-5.30535122 40.42941629 -11.50958918 51.90200715 -17.5 63.5 C-22.04204353 72.29290444 -26.70245237 81.00793483 -31.47387695 89.67822266 C-35.89207797 97.73498494 -40.11876168 105.885764 -44.32470703 114.05493164 C-47.88703288 120.94654921 -51.57650062 127.7432805 -55.54956055 134.40771484 C-56.42408617 135.90625416 -57.22148025 137.44941232 -58 139 C-57.67 139.66 -57.34 140.32 -57 141 C-18.06 141 20.88 141 61 141 C59.53295943 136.59887829 58.18023586 133.19861939 56.015625 129.203125 C55.41766113 128.09356445 54.81969727 126.98400391 54.20361328 125.84082031 C53.5524593 124.64385276 52.90125346 123.44691343 52.25 122.25 C51.57098253 120.99341754 50.89244221 119.73657714 50.21435547 118.47949219 C48.8215144 115.89902682 47.42612047 113.31996995 46.02832031 110.7421875 C43.05046059 105.2502302 40.0877592 99.75011423 37.125 94.25 C36.28086548 92.68499756 36.28086548 92.68499756 35.41967773 91.08837891 C30.31008111 81.60454409 25.26618404 72.08636818 20.22225952 62.56750488 C14.25808477 51.31696769 8.19209767 40.12705241 2 29 C1.67 29 1.34 29 1 29 Z " fill="#141414" transform="translate(161,131)"/>
<path d="" fill="#FFFFFF" transform="translate(0,0)"/>
</svg>
